<svg width="64" height="64" viewBox="0 0 64 64" fill="none" xmlns="http://www.w3.org/2000/svg" role="img" aria-label="ReadingGo 참새">
  <rect width="64" height="64" rx="16" fill="#F1FBF5"/>
  <!-- 꼬리 -->
  <path d="M50 30 L62 25 L60 36 L50 37 Z" fill="#1F8E4D"/>
  <!-- 몸통 -->
  <ellipse cx="34" cy="37" rx="17" ry="15" fill="#3FD17F"/>
  <!-- 머리 -->
  <circle cx="24" cy="26" r="12" fill="#3FD17F"/>
  <!-- 배(밝은 톤) -->
  <path d="M21 41 Q31 51 45 45 Q40 51 30 51 Q22 49 19 43 Z" fill="#DFF6EA"/>
  <!-- 날개 -->
  <path d="M31 31 Q42 30 49 39 Q40 43 32 40 Q27 35 31 31 Z" fill="#2EB867"/>
  <!-- 부리 -->
  <path d="M11 25 L23 21 L23 30 Z" fill="#FF8A3D"/>
  <!-- 눈 -->
  <circle cx="21" cy="24" r="2.5" fill="#2A2D33"/>
  <circle cx="21.9" cy="23.1" r="0.85" fill="#FFFFFF"/>
</svg>
